<?xml version="1.0" standalone="no"?>
<!DOCTYPE svg PUBLIC "-//W3C//DTD SVG 20010904//EN"
 "http://www.w3.org/TR/2001/REC-SVG-20010904/DTD/svg10.dtd">
<svg version="1.0" xmlns="http://www.w3.org/2000/svg"
 width="2000.000000pt" height="2000.000000pt" viewBox="0 0 2000.000000 2000.000000"
 preserveAspectRatio="xMidYMid meet">

<g transform="translate(0.000000,2000.000000) scale(0.100000,-0.100000)"
fill="#000000" stroke="none">
<path d="M10020 17219 c-36 -4 -114 -8 -175 -8 -104 0 -203 -7 -408 -30 -48
-6 -92 -13 -97 -16 -5 -3 -37 -1 -69 6 -46 9 -68 9 -93 0 -18 -7 -73 -16 -123
-21 -150 -16 -336 -49 -581 -106 -56 -13 -146 -28 -200 -33 -176 -19 -580
-138 -769 -227 -49 -23 -111 -50 -138 -58 -26 -9 -75 -30 -110 -47 -34 -18
-91 -43 -126 -56 -35 -13 -105 -46 -155 -73 -50 -26 -118 -60 -151 -73 -33
-14 -100 -49 -150 -78 -49 -28 -126 -67 -170 -86 -43 -19 -97 -49 -120 -67
-22 -18 -64 -45 -92 -60 -29 -14 -101 -61 -161 -104 -59 -42 -161 -111 -225
-152 -139 -89 -393 -278 -496 -370 -175 -156 -442 -413 -579 -558 -250 -264
-362 -398 -504 -607 -53 -77 -108 -151 -123 -165 -34 -31 -127 -173 -168 -255
-16 -33 -69 -125 -117 -205 -121 -200 -217 -377 -382 -705 -128 -255 -149
-304 -234 -555 -134 -396 -219 -683 -285 -975 -33 -144 -84 -458 -94 -575 -4
-41 -13 -97 -20 -125 -7 -27 -16 -117 -19 -200 -3 -82 -10 -177 -16 -210 -14
-88 -16 -707 -2 -780 6 -33 16 -134 22 -225 13 -189 45 -459 60 -510 5 -19 17
-78 25 -130 18 -111 52 -252 106 -440 21 -74 50 -184 65 -245 14 -60 34 -126
44 -145 9 -19 39 -107 65 -195 26 -88 71 -217 101 -288 30 -70 54 -130 54
-134 0 -25 293 -621 340 -693 20 -30 67 -110 104 -178 37 -67 99 -164 139
-215 40 -51 86 -115 102 -142 68 -117 356 -508 435 -590 36 -38 78 -88 92
-110 14 -22 99 -115 189 -205 91 -91 194 -196 230 -235 37 -38 97 -99 135
-134 38 -36 103 -96 144 -135 75 -71 131 -117 281 -231 43 -33 120 -92 171
-131 51 -39 125 -92 163 -118 39 -26 81 -55 95 -65 70 -53 551 -351 565 -351
19 0 267 -128 320 -165 33 -23 78 -48 100 -55 80 -25 296 -111 327 -130 18
-11 43 -20 55 -20 11 0 70 -20 130 -43 59 -24 133 -52 163 -62 30 -10 86 -33
125 -52 40 -19 85 -33 107 -33 21 0 63 -12 95 -26 74 -33 192 -71 260 -84 29
-5 63 -14 74 -21 22 -11 117 -31 249 -50 41 -6 85 -15 97 -21 14 -7 52 -9 99
-5 65 5 84 3 117 -14 35 -18 44 -19 87 -8 45 12 53 11 108 -14 33 -15 65 -27
72 -27 6 0 25 -9 41 -21 19 -13 36 -18 47 -14 9 4 99 10 198 12 178 5 182 4
197 -17 15 -22 15 -22 37 -2 26 24 111 36 162 22 27 -8 133 -8 133 -1 0 1 45
3 100 6 76 3 105 0 123 -11 12 -8 22 -12 22 -9 0 3 8 1 18 -4 24 -13 139 2
223 28 62 20 349 61 424 61 20 0 60 7 88 15 29 8 97 21 152 30 55 8 161 28
235 44 74 16 171 36 215 46 43 9 97 15 120 13 32 -4 49 1 81 23 23 16 96 44
165 64 248 72 475 149 509 172 19 12 43 23 53 23 9 0 48 15 85 34 37 18 85 39
107 46 60 19 543 260 675 337 63 36 141 80 172 97 143 77 642 408 783 520 50
40 151 117 225 173 74 55 144 111 155 123 11 13 53 49 94 82 40 32 97 89 126
126 52 65 112 118 187 162 21 12 46 36 58 54 11 18 72 89 136 157 63 68 125
142 136 164 11 22 40 61 62 86 23 26 71 88 106 139 36 51 94 126 129 169 35
42 99 130 142 196 43 66 86 131 96 145 11 14 37 57 58 95 21 39 84 140 141
225 66 100 133 219 188 334 47 98 86 183 86 188 0 4 27 63 61 130 92 185 137
289 189 443 75 223 147 426 169 478 12 27 21 59 21 72 0 14 7 39 15 57 40 91
70 180 80 243 12 69 74 326 101 415 12 41 22 163 40 480 3 63 14 185 23 270
14 127 16 197 10 390 -4 129 -12 282 -18 340 -6 58 -16 202 -21 320 -12 259
-27 367 -79 571 -19 75 -47 223 -76 412 -8 55 -33 154 -54 220 -22 67 -42 136
-45 152 -18 84 -127 410 -169 505 -11 25 -67 155 -124 290 -57 135 -132 297
-167 360 -34 63 -80 149 -101 190 -21 41 -57 109 -80 150 -23 41 -55 104 -70
140 -25 56 -62 125 -171 315 -12 22 -55 76 -94 120 -39 44 -101 128 -138 187
-47 75 -138 187 -297 369 -127 144 -248 285 -271 313 -52 66 -144 148 -158
143 -7 -3 -25 9 -41 26 -28 28 -28 29 -5 17 14 -8 -10 25 -57 76 -131 143
-213 218 -296 274 -43 29 -122 87 -175 129 -53 42 -125 97 -160 122 -34 24
-84 59 -110 77 -26 19 -85 62 -132 96 -47 34 -107 75 -135 91 -27 15 -90 55
-138 88 -49 32 -148 87 -220 122 -73 34 -264 128 -426 209 -162 80 -300 146
-307 146 -8 0 -33 9 -56 20 -40 18 -77 33 -318 133 -47 20 -103 39 -125 43
-22 3 -89 22 -150 41 -250 79 -466 134 -631 163 -66 11 -156 32 -200 46 -92
29 -228 53 -299 54 -27 0 -79 7 -115 15 -143 32 -398 58 -456 46 -22 -4 -90
-4 -150 0 -235 16 -261 17 -324 8z m765 -55 l40 -13 -51 3 c-29 2 -57 0 -64
-4 -13 -8 -90 18 -90 31 0 10 117 -1 165 -17z m1094 -208 c10 -11 7 -14 -14
-12 -14 0 -25 7 -25 14 0 16 25 15 39 -2z m46 -16 c3 -5 2 -10 -4 -10 -5 0
-13 5 -16 10 -3 6 -2 10 4 10 5 0 13 -4 16 -10z m-830 -100 c3 -6 -1 -7 -9 -4
-18 7 -21 14 -7 14 6 0 13 -4 16 -10z m55 -43 c0 -23 39 -56 80 -67 34 -9 42
-8 59 9 16 16 17 20 5 23 -22 5 11 48 37 48 16 0 19 -4 13 -22 -3 -13 -11 -24
-15 -26 -5 -2 -4 -13 2 -23 8 -16 13 -18 25 -8 11 9 14 8 14 -4 0 -11 5 -14
18 -10 15 6 15 5 3 -10 -7 -9 -25 -17 -40 -17 -24 -1 -24 -2 12 -21 24 -12 37
-27 37 -39 0 -24 -9 -25 -36 -5 -27 21 -40 18 -20 -4 15 -17 16 -19 1 -25 -9
-3 -21 -4 -26 0 -5 3 -12 -2 -15 -10 -3 -9 -13 -16 -21 -16 -8 0 -12 4 -9 9 7
11 -14 20 -32 13 -11 -4 -11 -6 0 -13 10 -7 9 -9 -3 -9 -20 0 -30 21 -22 48 6
23 -27 46 -55 39 -13 -3 -12 -6 8 -14 23 -9 22 -10 -15 -10 -23 0 -51 -3 -63
-7 -17 -6 -22 -3 -22 9 0 9 -4 13 -10 10 -5 -3 -10 -1 -10 5 0 7 -12 9 -30 6
-16 -2 -30 0 -30 5 0 5 -25 9 -55 9 -30 0 -55 5 -55 10 0 6 6 10 13 10 7 0 18
5 25 12 7 7 36 13 65 13 29 1 57 4 63 7 5 4 16 3 24 -3 21 -12 24 -12 54 12
20 16 24 24 15 30 -17 10 -19 49 -2 49 7 0 13 -6 13 -13z m350 3 c0 -5 -2 -10
-4 -10 -3 0 -8 5 -11 10 -3 6 -1 10 4 10 6 0 11 -4 11 -10z m-119 -21 c-24
-22 -37 -20 -28 6 4 8 16 15 29 15 l22 0 -23 -21z m-116 -10 c-10 -15 -25 -10
-19 6 4 8 10 12 15 9 5 -3 7 -10 4 -15z m-275 -29 c0 -5 -7 -7 -15 -4 -8 4
-15 8 -15 10 0 2 7 4 15 4 8 0 15 -4 15 -10z m-111 -9 c7 -5 9 -11 5 -14 -5
-3 -15 1 -22 9 -14 16 -5 18 17 5z m150 -112 c-10 -6 -11 -9 -1 -9 6 0 12 -4
12 -10 0 -5 -6 -10 -14 -10 -17 0 -28 38 -12 43 18 7 30 -5 15 -14z m109 -22
c-28 -10 -36 0 -12 17 14 11 21 11 26 3 4 -7 -1 -15 -14 -20z m232 -22 c0 -1
-9 -12 -20 -25 -11 -13 -20 -18 -20 -12 0 7 -3 11 -7 11 -19 -3 -23 2 -11 15
10 11 16 11 27 2 12 -9 14 -8 8 6 -4 12 -2 15 9 11 7 -3 14 -6 14 -8z m-83
-47 c-3 -7 -5 -2 -5 12 0 14 2 19 5 13 2 -7 2 -19 0 -25z m-480 16 c-3 -3 -12
-4 -19 -1 -8 3 -5 6 6 6 11 1 17 -2 13 -5z m1620 -130 c-3 -3 -12 -4 -19 -1
-8 3 -5 6 6 6 11 1 17 -2 13 -5z m-757 -100 c0 -20 -7 -17 -20 6 -9 16 -8 18
5 14 8 -4 15 -12 15 -20z m-2027 -51 c-7 -2 -21 -2 -30 0 -10 3 -4 5 12 5 17
0 24 -2 18 -5z m3097 -253 c13 -8 13 -10 -2 -10 -9 0 -20 5 -23 10 -8 13 5 13
25 0z m1000 -446 c0 -8 -5 -14 -11 -14 -5 0 -7 5 -4 10 4 6 1 19 -7 28 -12 15
-11 16 5 3 9 -7 17 -20 17 -27z m49 7 c16 -10 6 -31 -15 -31 -8 0 -14 9 -14
20 0 22 7 25 29 11z m-4032 -367 c-3 -3 -12 -4 -19 -1 -8 3 -5 6 6 6 11 1 17
-2 13 -5z m1761 -1522 c3 -23 -5 -27 -32 -16 -12 5 -13 10 -5 26 13 24 33 19
37 -10z m1062 -157 c0 -16 -35 -21 -45 -6 -4 8 9 15 38 20 4 0 7 -6 7 -14z
m1340 -120 c0 -8 -4 -15 -10 -15 -5 0 -10 7 -10 15 0 8 5 15 10 15 6 0 10 -7
10 -15z m1320 5 c0 -5 -4 -10 -10 -10 -5 0 -10 5 -10 10 0 6 5 10 10 10 6 0
10 -4 10 -10z m-1250 -10 c0 -5 -4 -10 -10 -10 -5 0 -10 5 -10 10 0 6 5 10 10
10 6 0 10 -4 10 -10z m17 -56 c-9 -9 -28 6 -21 18 4 6 10 6 17 -1 6 -6 8 -13
4 -17z m188 -194 c3 -5 1 -10 -4 -10 -6 0 -11 5 -11 10 0 6 2 10 4 10 3 0 8
-4 11 -10z m-418 -266 c-3 -3 -12 -4 -19 -1 -8 3 -5 6 6 6 11 1 17 -2 13 -5z
m495 -426 c-7 -7 -12 -8 -12 -2 0 14 12 26 19 19 2 -3 -1 -11 -7 -17z m478
-143 c0 -9 -9 -15 -22 -14 -17 1 -19 2 -5 6 9 2 17 9 17 14 0 5 2 9 5 9 3 0 5
-7 5 -15z m-20 -315 c0 -5 -7 -10 -16 -10 -8 0 -12 5 -9 10 3 6 10 10 16 10 5
0 9 -4 9 -10z m110 -25 c-7 -8 -16 -15 -21 -15 -5 0 -6 7 -3 15 4 8 13 15 21
15 13 0 13 -3 3 -15z m-450 -85 c0 -5 -5 -10 -11 -10 -5 0 -7 5 -4 10 3 6 8
10 11 10 2 0 4 -4 4 -10z m280 -149 c0 -5 -9 -11 -20 -14 -20 -5 -26 3 -13 16
9 10 33 8 33 -2z m-50 -111 c0 -5 -4 -10 -10 -10 -5 0 -10 5 -10 10 0 6 5 10
10 10 6 0 10 -4 10 -10z"/>
<path d="M11237 16684 c5 -15 58 -23 75 -12 10 6 10 8 0 8 -7 0 -11 3 -9 8 3
4 -12 7 -33 7 -24 0 -36 -4 -33 -11z"/>
<path d="M11008 16673 c7 -3 16 -2 19 1 4 3 -2 6 -13 5 -11 0 -14 -3 -6 -6z"/>
</g>
</svg>
