<?xml version="1.0" standalone="no"?>
<!DOCTYPE svg PUBLIC "-//W3C//DTD SVG 20010904//EN"
 "http://www.w3.org/TR/2001/REC-SVG-20010904/DTD/svg10.dtd">
<svg version="1.0" xmlns="http://www.w3.org/2000/svg"
 width="720.000000pt" height="440.000000pt" viewBox="0 0 720.000000 440.000000"
 preserveAspectRatio="xMidYMid meet">

<g transform="translate(0.000000,440.000000) scale(0.100000,-0.100000)"
fill="#000000" stroke="none">
<path d="M0 2200 l0 -2200 3093 0 3093 0 -1 24 c-2 28 -21 56 -40 56 -8 0 -11
8 -8 20 3 11 0 27 -7 35 -10 12 -9 16 4 21 12 5 13 10 5 25 -13 25 3 24 26 -1
11 -12 18 -34 17 -56 -1 -19 6 -47 16 -62 9 -14 16 -27 15 -29 -2 -2 -3 -10
-3 -18 0 -13 61 -15 491 -15 l490 0 -7 23 c-4 12 -9 28 -11 34 -3 7 2 16 11
19 14 6 16 70 16 669 0 655 0 664 -20 670 -11 3 -20 11 -20 16 0 6 9 7 20 4
20 -6 20 -2 20 354 0 221 -4 370 -10 387 -7 17 -7 30 -1 38 7 8 10 397 11
1099 l0 1087 -1975 0 c-1573 0 -1975 -3 -1975 -12 0 -9 -4 -8 -10 2 -8 12 -10
12 -10 1 0 -10 -3 -11 -14 -2 -10 8 -324 10 -1172 9 l-1159 -3 -5 -28 -5 -27
-20 30 c-23 34 -40 40 -32 10 3 -11 4 -20 3 -20 -2 0 -13 9 -26 20 -13 11 -30
20 -39 20 -12 -1 -11 -5 7 -19 23 -20 30 -51 11 -51 -5 0 -8 -4 -5 -9 3 -5 -1
-14 -9 -21 -12 -10 -15 -9 -15 8 0 11 -7 27 -15 36 -8 8 -15 24 -15 35 0 21
-3 21 -360 21 l-360 0 0 -2200z m4160 2122 c13 -11 12 -12 -9 -10 -17 2 -27
11 -32 30 -9 34 3 46 16 16 5 -13 16 -29 25 -36z m1830 28 c0 -5 -2 -10 -4
-10 -3 0 -8 5 -11 10 -3 6 -1 10 4 10 6 0 11 -4 11 -10z m-3654 -46 c-8 -21
-11 -17 -20 21 -7 28 -6 29 10 13 10 -10 14 -23 10 -34z m-1614 -11 c-4 -23
-28 -27 -26 -5 1 7 2 21 3 32 1 17 4 18 14 8 8 -6 11 -22 9 -35z m1508 27 c0
-5 -4 -10 -10 -10 -5 0 -10 5 -10 10 0 6 5 10 10 10 6 0 10 -4 10 -10z m2735
0 c3 -5 1 -10 -4 -10 -6 0 -11 5 -11 10 0 6 2 10 4 10 3 0 8 -4 11 -10z
m-1917 -28 c-2 -21 4 -32 18 -32 8 0 12 -4 9 -10 -19 -30 -74 11 -61 46 5 13
36 9 34 -4z m-2711 -58 c36 -37 42 -48 32 -60 -8 -10 -15 -11 -24 -4 -9 8 -15
7 -18 -2 -4 -9 -6 -8 -6 3 -1 9 -12 37 -26 63 -31 59 -14 59 42 0z m953 42 c0
-3 -4 -8 -10 -11 -5 -3 -10 -1 -10 4 0 6 5 11 10 11 6 0 10 -2 10 -4z m1930
-14 c0 -5 9 -18 20 -30 22 -24 14 -30 -12 -9 -19 15 -31 47 -18 47 6 0 10 -4
10 -8z m-2650 -32 c0 -5 -2 -10 -4 -10 -3 0 -8 5 -11 10 -3 6 -1 10 4 10 6 0
11 -4 11 -10z m370 -52 c0 -10 -4 -18 -10 -18 -5 0 -10 5 -10 11 0 5 -4 7 -10
4 -5 -3 -10 0 -10 9 0 8 -6 17 -12 20 -7 4 -3 4 9 2 16 -3 20 0 16 13 -3 12
-1 11 11 -3 9 -11 16 -28 16 -38z m2568 16 c-10 -10 -28 6 -28 24 0 15 1 15
17 -1 9 -9 14 -19 11 -23z m3414 19 c27 -24 22 -36 -7 -17 -14 9 -25 20 -25
25 0 14 11 11 32 -8z m-6420 -43 c16 -29 16 -30 -2 -30 -12 0 -26 12 -35 30
-14 28 -14 30 2 30 10 0 26 -14 35 -30z m28 26 c0 -3 -4 -8 -10 -11 -5 -3 -10
-1 -10 4 0 6 5 11 10 11 6 0 10 -2 10 -4z m484 -11 c3 -8 12 -12 20 -9 8 3 17
1 21 -5 3 -6 14 -11 25 -11 10 0 20 -7 24 -15 4 -12 -1 -15 -27 -12 -17 3 -45
9 -60 16 -16 6 -32 11 -37 11 -4 0 -11 7 -14 16 -5 13 -2 15 14 11 11 -3 18
-1 14 4 -3 5 -1 9 4 9 6 0 12 -7 16 -15z m1663 -15 c0 -32 -4 -35 -27 -20 -12
7 -12 12 4 29 11 12 20 21 21 21 1 0 2 -13 2 -30z m-1397 -20 c0 -5 -4 -10 -9
-10 -6 0 -13 5 -16 10 -3 6 1 10 9 10 9 0 16 -4 16 -10z m-900 -48 c0 -7 -4
-10 -10 -7 -5 3 -10 16 -10 28 0 18 2 19 10 7 5 -8 10 -21 10 -28z m116 -7 c7
-13 9 -26 6 -30 -8 -8 -42 26 -42 42 0 22 24 14 36 -12z m600 -2 c-8 -8 -36 5
-36 17 0 7 6 7 21 0 11 -7 18 -14 15 -17z m-336 0 c0 -4 -10 -17 -21 -30 -12
-12 -22 -36 -23 -53 -1 -31 -20 -41 -30 -15 -7 19 10 65 24 65 5 0 10 6 10 14
0 8 6 17 13 19 18 8 27 8 27 0z m790 -23 c0 -5 -4 -10 -10 -10 -5 0 -10 5 -10
10 0 6 5 10 10 10 6 0 10 -4 10 -10z m1120 -10 c0 -5 -4 -10 -10 -10 -5 0 -10
5 -10 10 0 6 5 10 10 10 6 0 10 -4 10 -10z m538 -18 c4 -24 -7 -29 -25 -11
-14 14 -5 41 11 36 6 -2 12 -13 14 -25z m57 18 c3 -5 1 -10 -4 -10 -6 0 -11 5
-11 10 0 6 2 10 4 10 3 0 8 -4 11 -10z m925 0 c0 -5 -2 -10 -4 -10 -3 0 -8 5
-11 10 -3 6 -1 10 4 10 6 0 11 -4 11 -10z m-3823 -22 c-3 -8 -6 -5 -6 6 -1 11
2 17 5 13 3 -3 4 -12 1 -19z m2376 0 c8 -30 -2 -37 -19 -14 -18 25 -18 36 0
36 7 0 16 -10 19 -22z m3801 -68 c-8 -7 -64 58 -64 73 1 6 16 -6 35 -28 18
-22 31 -42 29 -45z m-2774 19 c0 -6 -4 -7 -10 -4 -5 3 -10 11 -10 16 0 6 5 7
10 4 6 -3 10 -11 10 -16z m145 11 c3 -5 1 -10 -4 -10 -6 0 -11 5 -11 10 0 6 2
10 4 10 3 0 8 -4 11 -10z m-1066 -67 c0 -25 -1 -26 -9 -8 -12 27 -12 35 0 35
6 0 10 -12 9 -27z m-2072 -12 c-17 -6 -17 -8 -3 -20 15 -13 22 -41 10 -41 -18
0 -44 23 -44 40 0 19 13 28 40 29 10 0 9 -3 -3 -8z m96 -41 c3 -11 2 -20 -3
-20 -8 0 -20 24 -20 41 0 17 17 1 23 -21z m2183 -29 c3 -22 2 -22 -17 -5 -19
17 -25 45 -12 58 9 9 26 -22 29 -53z m-2140 11 c-10 -10 -29 15 -21 28 6 9 10
8 17 -4 6 -10 7 -20 4 -24z m2719 27 c11 -17 -1 -21 -15 -4 -8 9 -8 15 -2 15
6 0 14 -5 17 -11z m-2805 -19 c0 -5 -4 -10 -9 -10 -6 0 -13 5 -16 10 -3 6 1
10 9 10 9 0 16 -4 16 -10z m2345 0 c3 -5 1 -10 -4 -10 -6 0 -11 5 -11 10 0 6
2 10 4 10 3 0 8 -4 11 -10z m-457 -54 c-5 -46 -23 -37 -26 13 -3 40 -2 43 13
31 10 -8 15 -25 13 -44z m-1134 23 c13 -16 15 -24 6 -33 -8 -8 -15 -6 -26 8
-15 21 -19 46 -6 46 4 0 16 -10 26 -21z m3026 -12 c0 -4 -6 -2 -14 5 -8 7 -12
17 -9 22 5 8 23 -12 23 -27z m1270 -8 c0 -15 38 -57 46 -51 2 1 4 0 4 -3 0 -3
-2 -5 -5 -5 -3 0 -9 0 -15 0 -20 0 -50 45 -50 74 0 24 3 27 10 16 5 -8 10 -22
10 -31z m-4340 -4 c7 -9 8 -15 2 -15 -5 0 -12 7 -16 15 -3 8 -4 15 -2 15 2 0
9 -7 16 -15z m1305 -10 c0 -29 -10 -33 -19 -8 -4 9 -1 20 6 25 7 4 13 8 13 8
0 0 0 -11 0 -25z m4322 3 c-3 -8 -6 -5 -6 6 -1 11 2 17 5 13 3 -3 4 -12 1 -19z
m-6392 2 c3 -5 1 -10 -4 -10 -6 0 -11 5 -11 10 0 6 2 10 4 10 3 0 8 -4 11 -10z
m1845 -21 c0 -5 -4 -9 -10 -9 -5 0 -10 7 -10 16 0 8 5 12 10 9 6 -3 10 -10 10
-16z m48 -17 c2 -7 -3 -12 -12 -12 -9 0 -16 7 -16 16 0 17 22 14 28 -4z
m-1198 -2 c0 -5 -4 -10 -10 -10 -5 0 -10 5 -10 10 0 6 5 10 10 10 6 0 10 -4
10 -10z m3721 -34 c13 -14 11 -36 -4 -36 -6 0 -18 14 -26 31 -12 27 -12 32 0
40 10 6 15 3 17 -9 2 -9 8 -21 13 -26z m-1406 7 c-2 -10 -4 -22 -4 -26 -1 -5
-5 -5 -11 -2 -15 9 -12 45 4 45 8 0 13 -8 11 -17z m83 -13 c33 -15 39 -24 22
-35 -6 -4 -25 8 -43 26 -17 18 -27 30 -22 27 6 -2 25 -11 43 -18z m-1386 -44
c24 -26 23 -39 -2 -26 -25 13 -43 47 -34 62 6 9 9 8 12 -2 3 -8 13 -23 24 -34z
m2674 20 c2 -14 0 -15 -12 -5 -17 14 -19 32 -2 27 6 -2 12 -12 14 -22z m-2105
-52 c4 -5 5 -20 2 -33 -4 -17 -8 -19 -14 -9 -7 10 -11 7 -15 -9 -7 -26 -34
-32 -34 -8 0 8 -7 15 -15 15 -8 0 -15 7 -15 15 0 10 10 15 30 15 26 0 30 4 30
28 0 36 14 51 18 20 2 -12 8 -28 13 -34z m1199 25 c0 7 5 9 10 6 8 -5 7 -11
-1 -21 -6 -8 -8 -14 -4 -14 5 0 5 -3 2 -7 -8 -7 -57 35 -57 49 0 5 11 1 25 -8
17 -11 25 -12 25 -5z m-1093 -21 c-3 -8 -6 -5 -6 6 -1 11 2 17 5 13 3 -3 4
-12 1 -19z m1148 -15 c-11 -7 -22 -13 -27 -13 -13 0 -4 25 12 31 24 10 35 -3
15 -18z m-995 -24 c0 -10 -4 -19 -10 -19 -5 0 -10 4 -10 9 0 5 -3 17 -6 25 -5
12 -2 15 10 10 9 -3 16 -15 16 -25z m618 13 c2 -7 -2 -10 -12 -6 -9 3 -16 11
-16 16 0 13 23 5 28 -10z m-998 -7 c0 -8 -4 -15 -10 -15 -5 0 -10 7 -10 15 0
8 5 15 10 15 6 0 10 -7 10 -15z m1320 -5 c0 -5 -2 -10 -4 -10 -3 0 -8 5 -11
10 -3 6 -1 10 4 10 6 0 11 -4 11 -10z m-145 -28 c-3 -3 -11 0 -18 7 -9 10 -8
11 6 5 10 -3 15 -9 12 -12z m-1760 -54 c3 -7 -1 -4 -9 6 -9 11 -16 29 -15 40
1 17 2 16 9 -6 4 -14 11 -32 15 -40z m2168 55 c-7 -2 -21 -2 -30 0 -10 3 -4 5
12 5 17 0 24 -2 18 -5z m2331 -8 c3 -8 1 -15 -4 -15 -6 0 -10 7 -10 15 0 8 2
15 4 15 2 0 6 -7 10 -15z m-4190 -10 c3 -8 1 -15 -4 -15 -6 0 -10 7 -10 15 0
8 2 15 4 15 2 0 6 -7 10 -15z m256 5 c0 -5 -7 -7 -15 -4 -8 4 -15 8 -15 10 0
2 7 4 15 4 8 0 15 -4 15 -10z m-119 -28 c21 -24 31 -52 19 -52 -6 0 -24 13
-41 29 -20 20 -26 31 -17 34 21 9 23 8 39 -11z m3282 -4 c2 -13 8 -31 12 -40
11 -27 -12 -22 -30 6 -15 22 -12 56 5 56 4 0 10 -10 13 -22z m-1333 -2 c0 -7
-7 -19 -15 -26 -13 -11 -15 -8 -15 14 0 16 5 26 15 26 8 0 15 -6 15 -14z m380
-16 c13 -11 20 -23 17 -26 -8 -8 -57 23 -57 36 0 16 15 12 40 -10z m-3550 -43
c0 -4 -6 -2 -14 5 -8 7 -12 17 -9 22 5 8 23 -12 23 -27z m90 7 c0 -8 -4 -14
-10 -14 -5 0 -10 9 -10 21 0 11 5 17 10 14 6 -3 10 -13 10 -21z m2968 4 c30
-16 29 -52 -3 -66 -28 -13 -77 -15 -112 -6 -27 7 -33 54 -8 54 8 0 20 9 27 20
14 22 49 21 96 -2z m-1748 -14 c0 -2 -12 -4 -27 -4 -21 0 -24 3 -14 9 13 8 41
5 41 -5z m-250 -13 c0 -41 24 -69 32 -38 2 11 8 12 33 1 l30 -13 -30 -1 c-42
-2 -79 -49 -70 -90 4 -17 13 -36 20 -44 21 -20 7 -53 -27 -65 -27 -10 -30 -9
-25 8 2 11 -4 32 -15 48 -20 28 -20 28 -14 3 3 -14 1 -32 -5 -40 -8 -13 -11
-13 -23 3 -16 21 -11 54 13 81 11 12 16 36 15 71 0 48 1 52 18 41 10 -6 18
-16 18 -23 0 -7 5 -13 10 -13 6 0 10 9 10 20 0 11 -5 20 -10 20 -7 0 -7 6 -1
19 6 10 7 21 4 25 -3 3 -1 6 5 6 7 0 12 -9 12 -19z m340 -46 c0 -41 -2 -45
-24 -45 -22 0 -36 16 -36 41 0 5 11 14 25 19 14 5 25 14 25 20 0 5 2 10 5 10
3 0 5 -20 5 -45z m-87 28 c-27 -5 -31 -23 -5 -23 16 -1 16 -1 0 -11 -24 -14
-22 -27 5 -32 19 -4 18 -4 -5 -6 -26 -1 -28 2 -28 39 0 37 2 40 28 39 23 -2
24 -2 5 -6z m160 -25 c8 -25 -5 -48 -28 -48 -24 0 -42 30 -30 50 9 14 53 12
58 -2z m106 -20 c-2 -31 -2 -31 -6 -5 -5 34 -33 36 -33 2 0 -14 -5 -25 -11
-25 -5 0 -9 10 -7 23 2 16 -2 22 -14 21 -10 -1 -18 2 -18 7 0 5 20 9 45 9 44
0 45 0 44 -32z m1636 -9 c14 -21 9 -80 -8 -96 -15 -16 -18 -15 -37 2 -24 22
-24 26 -6 70 15 34 38 45 51 24z m-1995 -9 c-20 -13 -40 -13 -40 0 0 6 12 10
28 10 21 0 24 -2 12 -10z m29 -48 c0 -24 -1 -25 -9 -7 -12 28 -12 47 0 40 6
-3 10 -18 9 -33z m94 11 c-7 -2 -13 -18 -13 -33 0 -35 -19 -80 -34 -80 -6 0
-4 -4 4 -10 18 -11 7 -25 -15 -17 -19 8 -20 37 -1 37 16 0 26 30 26 78 0 27 4
32 23 31 12 0 16 -3 10 -6z m-582 -65 c5 -9 5 -19 0 -22 -4 -3 -13 12 -20 33
-14 47 -13 65 1 31 5 -14 14 -33 19 -42z m469 52 c0 -5 -4 -10 -10 -10 -5 0
-10 5 -10 10 0 6 5 10 10 10 6 0 10 -4 10 -10z m-1584 -58 c-9 -8 -26 10 -26
26 1 15 2 15 15 -2 8 -11 13 -21 11 -24z m1018 22 c3 -8 2 -12 -4 -9 -6 3 -10
10 -10 16 0 14 7 11 14 -7z m-714 -65 c0 -14 -17 -10 -23 5 -4 10 -1 13 9 9 7
-3 14 -9 14 -14z m848 -4 c0 -30 -7 -28 -13 4 -2 11 0 21 4 21 5 0 9 -11 9
-25z m62 4 c0 -14 -17 -10 -23 5 -4 10 -1 13 9 9 7 -3 14 -9 14 -14z m2554 6
c23 -17 56 -20 56 -5 0 13 77 -41 85 -60 6 -15 -23 -61 -43 -68 -6 -2 -17 7
-23 21 -8 19 -16 23 -37 19 -15 -2 -35 -12 -45 -20 -16 -14 -19 -14 -33 0 -18
17 -35 84 -27 104 4 11 18 18 43 23 3 0 14 -6 24 -14z m-3511 -32 c6 -16 17
-34 24 -41 25 -26 13 -31 -32 -14 -41 15 -60 32 -35 32 6 0 10 11 10 25 0 33
17 32 33 -2z m124 -9 c-7 -7 -37 7 -37 17 0 6 9 5 21 -1 11 -7 19 -14 16 -16z
m-1317 -26 c3 -4 26 -16 50 -27 33 -15 39 -21 22 -21 -35 0 -78 26 -103 62
l-23 33 25 -20 c13 -11 26 -23 29 -27z m6047 -5 c-3 -10 -5 -2 -5 17 0 19 2
27 5 18 2 -10 2 -26 0 -35z m-3982 -14 c4 -19 3 -34 -3 -38 -20 -12 -7 -46 22
-60 16 -9 24 -17 17 -19 -20 -7 -62 20 -57 35 3 8 -1 16 -9 19 -8 4 -15 12
-15 20 0 8 6 11 16 7 14 -5 15 0 9 37 -8 50 9 49 20 -1z m3012 9 c-3 -7 -5 -2
-5 12 0 14 2 19 5 13 2 -7 2 -19 0 -25z m63 28 c0 -3 -4 -8 -10 -11 -5 -3 -10
-1 -10 4 0 6 5 11 10 11 6 0 10 -2 10 -4z m-3700 -43 c0 -16 4 -33 8 -38 10
-14 59 -35 82 -35 22 0 27 -26 8 -33 -9 -2 -10 -8 -3 -18 6 -8 2 -7 -7 3 -9
11 -18 18 -20 17 -2 -2 -18 2 -36 9 -19 7 -36 21 -42 37 -13 34 -13 85 0 85 6
0 10 -12 10 -27z m774 18 c3 -5 0 -11 -8 -14 -15 -6 -26 1 -26 15 0 11 27 10
34 -1z m3566 -12 c0 -6 -4 -7 -10 -4 -5 3 -10 11 -10 16 0 6 5 7 10 4 6 -3 10
-11 10 -16z m-4032 -7 c2 -7 -3 -12 -12 -12 -9 0 -16 7 -16 16 0 17 22 14 28
-4z m4332 -13 c0 -6 -4 -7 -10 -4 -5 3 -10 11 -10 16 0 6 5 7 10 4 6 -3 10
-11 10 -16z m-4432 -7 c2 -7 -3 -12 -12 -12 -9 0 -16 7 -16 16 0 17 22 14 28
-4z m46 12 c9 -3 16 -13 16 -21 0 -9 11 -25 25 -37 l26 -22 -22 -25 c-21 -24
-21 -24 -15 -1 8 23 -9 32 -16 10 -3 -7 -12 9 -21 36 -23 68 -23 72 7 60z
m3213 -8 c-3 -7 1 -26 9 -41 19 -36 18 -39 -5 -18 -26 26 -36 73 -15 73 10 0
14 -6 11 -14z m-3094 -33 c-7 -17 -33 2 -33 23 0 11 4 12 19 2 10 -6 17 -18
14 -25z m377 27 c0 -5 -5 -10 -11 -10 -5 0 -7 5 -4 10 3 6 8 10 11 10 2 0 4
-4 4 -10z m2537 -53 c3 -23 0 -28 -14 -25 -11 2 -19 14 -21 31 -5 40 30 34 35
-6z m1012 4 c8 -14 7 -20 -4 -25 -8 -3 -15 -1 -15 3 0 5 -3 16 -6 25 -9 23 13
20 25 -3z m1121 -10 c0 -10 7 -24 15 -31 8 -7 15 -20 15 -29 -1 -26 -47 37
-47 65 0 13 3 21 8 18 5 -3 9 -13 9 -23z m-1636 3 c10 -4 16 -18 16 -41 0 -27
-4 -34 -17 -31 -21 4 -44 45 -36 64 6 15 14 17 37 8z m-3827 -26 c-3 -8 -6 -5
-6 6 -1 11 2 17 5 13 3 -3 4 -12 1 -19z m463 2 c0 -11 -4 -20 -10 -20 -5 0
-10 9 -10 20 0 11 5 20 10 20 6 0 10 -9 10 -20z m2810 10 c0 -5 -2 -10 -4 -10
-3 0 -8 5 -11 10 -3 6 -1 10 4 10 6 0 11 -4 11 -10z m-3045 -10 c3 -5 -1 -10
-10 -10 -9 0 -13 5 -10 10 3 6 8 10 10 10 2 0 7 -4 10 -10z m1252 -61 c1 -12
10 -31 20 -42 18 -21 18 -21 -7 -6 -24 15 -41 69 -23 69 5 0 9 -10 10 -21z
m2783 -9 c0 -10 -4 -22 -10 -25 -6 -4 -10 7 -10 25 0 18 4 29 10 25 6 -3 10
-15 10 -25z m-3650 -15 c0 -6 -41 -1 -45 6 -12 19 6 28 25 11 11 -9 20 -17 20
-17z m-440 3 c0 6 5 12 10 12 13 0 13 -37 1 -45 -6 -3 -15 3 -20 14 -14 25
-14 41 -1 21 6 -10 10 -11 10 -2z m-493 -4 c-3 -3 -12 -4 -19 -1 -8 3 -5 6 6
6 11 1 17 -2 13 -5z m-287 -23 c0 -26 -27 -48 -42 -33 -9 9 -9 12 0 12 7 0 12
9 12 20 0 11 7 20 15 20 8 0 15 -8 15 -19z m1140 6 c0 -7 14 -23 30 -35 17
-13 30 -29 30 -37 0 -18 -16 -20 -23 -2 -4 7 -6 5 -7 -5 -2 -10 -4 -22 -5 -28
-1 -5 -3 -14 -4 -19 -2 -14 -71 13 -71 28 0 22 34 111 42 111 5 0 8 -6 8 -13z
m-471 -30 c12 -15 12 -17 -3 -11 -9 3 -16 13 -16 22 0 8 1 13 3 11 1 -2 9 -12
16 -22z m-24 -21 c17 -12 34 -27 38 -34 5 -7 18 -18 30 -23 20 -9 19 -9 -5 -6
-21 3 -28 0 -29 -12 0 -11 -3 -8 -9 7 -5 12 -25 36 -45 53 -19 17 -35 35 -35
41 0 10 8 6 55 -26z m4205 8 c0 -8 -4 -14 -10 -14 -5 0 -10 9 -10 21 0 11 5
17 10 14 6 -3 10 -13 10 -21z m-5316 0 c3 -8 2 -12 -4 -9 -6 3 -10 10 -10 16
0 14 7 11 14 -7z m1076 -37 c0 -5 9 -22 21 -38 16 -24 17 -29 5 -29 -8 0 -19
6 -23 14 -4 8 -17 15 -28 17 -13 3 -22 16 -26 39 -4 19 -5 38 -3 42 6 9 54
-32 54 -45z m4660 49 c0 -3 -4 -8 -10 -11 -5 -3 -10 -1 -10 4 0 6 5 11 10 11
6 0 10 -2 10 -4z m-4445 -44 c-8 -8 -25 10 -25 26 0 13 2 13 14 -4 8 -10 13
-21 11 -22z m3392 -6 c35 7 37 3 33 -43 -1 -13 3 -23 9 -23 24 0 10 -41 -16
-50 -16 -6 -36 -15 -45 -20 -28 -16 -51 -11 -77 15 -12 14 -26 23 -31 20 -10
-6 4 65 18 92 10 19 16 20 44 12 18 -5 48 -6 65 -3z m1043 10 c0 -16 -14 -36
-25 -36 -7 0 -15 -4 -17 -10 -2 -5 -9 -6 -16 -1 -20 12 7 51 35 51 13 0 23 -2
23 -4z m-4870 -41 c19 -19 30 -35 26 -35 -4 0 7 -12 24 -27 30 -25 31 -28 15
-39 -14 -11 -23 -10 -46 2 -35 17 -38 29 -6 21 22 -6 22 -6 2 9 -11 9 -32 20
-47 26 -16 5 -28 14 -28 19 0 5 -13 9 -29 9 -17 0 -33 5 -36 10 -12 19 17 40
54 40 29 0 44 -7 71 -35z m115 -15 c15 -17 16 -20 3 -20 -9 0 -18 9 -21 20 -3
11 -4 20 -3 20 2 0 11 -9 21 -20z m72 -10 c5 0 18 -9 28 -20 17 -18 17 -20 1
-20 -32 0 -76 30 -76 52 0 20 1 20 18 5 10 -10 23 -17 29 -17z m502 7 c20 5
61 -29 42 -35 -6 -2 -8 -8 -5 -13 3 -6 3 -17 0 -25 -4 -11 -10 -12 -25 -5 -17
10 -18 8 -11 -23 4 -20 3 -39 -2 -44 -6 -6 -6 -12 1 -16 7 -5 7 -13 -1 -26
-10 -15 -9 -33 0 -79 10 -48 10 -66 1 -83 -10 -18 -13 -19 -17 -8 -2 8 -19 31
-37 50 l-33 35 11 63 c6 34 16 62 21 62 6 0 4 5 -4 10 -13 8 -12 10 3 10 16 0
21 15 18 53 -1 9 2 17 8 17 5 0 8 16 5 38 -2 20 -2 32 1 26 3 -7 14 -10 24 -7z
m3251 -51 c0 -17 -26 -39 -40 -34 -6 2 -4 12 5 26 18 25 35 29 35 8z m990 -10
c0 -3 -4 -8 -10 -11 -5 -3 -10 -1 -10 4 0 6 5 11 10 11 6 0 10 -2 10 -4z m683
-25 c-4 -32 14 -60 45 -73 16 -6 22 -12 14 -15 -19 -7 -61 24 -72 53 -14 36
-12 67 3 61 6 -2 11 -14 10 -26z m-1103 -58 c14 -4 20 -14 20 -32 -1 -25 -1
-25 -15 -6 -8 11 -24 30 -36 41 -13 14 -18 27 -14 35 6 9 11 6 17 -10 4 -13
17 -25 28 -28z m74 -4 c-6 -11 -24 -2 -24 11 0 5 7 7 15 4 8 -4 12 -10 9 -15z
m56 2 c0 -10 8 -22 17 -25 14 -6 15 -9 4 -16 -22 -13 -48 9 -43 36 5 29 22 32
22 5z m80 -1 c0 -5 -7 -10 -15 -10 -8 0 -15 5 -15 10 0 6 7 10 15 10 8 0 15
-4 15 -10z m227 -12 c-3 -8 -6 -5 -6 6 -1 11 2 17 5 13 3 -3 4 -12 1 -19z
m-2947 -28 c0 -11 -4 -20 -10 -20 -5 0 -10 9 -10 20 0 11 5 20 10 20 6 0 10
-9 10 -20z m1992 -5 c3 -14 1 -28 -3 -31 -5 -3 -9 3 -9 13 -1 17 -1 17 -11 0
-8 -14 -8 -22 0 -30 30 -30 -8 -38 -40 -8 l-21 19 21 11 c12 7 21 18 21 26 0
12 13 22 31 24 4 1 9 -10 11 -24z m-57 -5 c3 -5 1 -10 -4 -10 -6 0 -11 5 -11
10 0 6 2 10 4 10 3 0 8 -4 11 -10z m120 0 c3 -5 1 -10 -4 -10 -6 0 -11 5 -11
10 0 6 2 10 4 10 3 0 8 -4 11 -10z m127 -12 c-7 -7 -12 -8 -12 -2 0 14 12 26
19 19 2 -3 -1 -11 -7 -17z m-5555 -60 c-3 -8 -6 -5 -6 6 -1 11 2 17 5 13 3 -3
4 -12 1 -19z m702 -39 c3 -23 2 -23 -16 -6 -27 24 -34 21 -27 -10 7 -25 6 -27
-9 -14 -24 19 -21 40 6 51 31 12 41 7 46 -21z m4625 -11 c4 -17 2 -28 -4 -28
-5 0 -10 7 -10 16 0 11 -6 15 -20 11 -18 -5 -18 -4 -3 20 18 27 27 22 37 -19z
m101 19 c27 -21 9 -37 -41 -37 -37 0 -45 3 -42 17 3 14 24 26 59 32 3 1 13 -5
24 -12z m-4554 -66 c0 11 2 11 6 -1 21 -59 55 -120 70 -129 10 -6 14 -11 9
-11 -6 0 0 -9 12 -20 25 -24 29 -50 7 -50 -8 0 -15 3 -15 8 0 4 -10 12 -22 17
-12 6 -25 20 -28 33 -3 13 -9 22 -13 20 -6 -2 -54 116 -57 140 -1 11 -20 -2
-20 -14 0 -8 -4 -12 -10 -9 -6 4 -5 13 2 25 12 19 13 19 35 -2 17 -16 23 -18
24 -7z m1138 7 c1 -13 4 -51 5 -85 2 -34 7 -66 10 -71 9 -15 -11 -24 -34 -17
-24 7 -35 39 -21 62 6 12 5 26 -5 45 -12 24 -12 28 1 36 9 4 17 18 18 30 2 29
24 28 26 0z m3941 -19 c0 -5 -4 -9 -10 -9 -5 0 -10 7 -10 16 0 8 5 12 10 9 6
-3 10 -10 10 -16z m-5220 -19 c23 -19 24 -21 8 -31 -10 -5 -18 -20 -18 -32 0
-29 -10 -42 -36 -44 -18 -2 -23 4 -26 33 -2 21 1 39 9 46 7 6 13 19 13 29 0
24 18 24 50 -1z m5300 -13 c0 -2 -9 -12 -20 -22 -19 -18 -20 -17 -20 3 0 15 6
22 20 22 11 0 20 -2 20 -3z m-5796 -22 c3 -8 1 -15 -4 -15 -6 0 -10 7 -10 15
0 8 2 15 4 15 2 0 6 -7 10 -15z m5478 -7 c-7 -7 -12 -8 -12 -2 0 14 12 26 19
19 2 -3 -1 -11 -7 -17z m1212 7 c3 -8 1 -15 -4 -15 -6 0 -10 7 -10 15 0 8 2
15 4 15 2 0 6 -7 10 -15z m-864 -14 c0 -5 -7 -14 -15 -21 -12 -10 -15 -10 -15
2 0 8 3 18 7 21 9 10 23 9 23 -2z m-369 -54 c-6 -6 -11 -19 -11 -29 0 -10 -4
-18 -10 -18 -14 0 -12 13 5 36 8 10 15 28 16 39 1 18 2 18 6 1 3 -10 0 -23 -6
-29z m-284 1 c-3 -8 -6 -5 -6 6 -1 11 2 17 5 13 3 -3 4 -12 1 -19z m873 -36
c0 -7 -4 -10 -10 -7 -5 3 -10 16 -10 28 0 18 2 19 10 7 5 -8 10 -21 10 -28z
m413 25 c26 2 47 -2 47 -7 0 -6 -8 -11 -17 -11 -37 -3 -43 -4 -42 -13 0 -5 -7
-14 -17 -19 -14 -8 -22 -4 -41 19 -29 37 -29 48 0 37 12 -4 43 -7 70 -6z m147
-2 c0 -8 -2 -15 -4 -15 -2 0 -6 7 -10 15 -3 8 -1 15 4 15 6 0 10 -7 10 -15z
m-264 -78 c12 -7 12 -12 3 -23 -12 -15 -33 -9 -24 7 4 5 1 9 -4 9 -12 0 -15
63 -3 74 4 4 8 -7 10 -26 2 -18 10 -37 18 -41z m-4566 12 c0 -33 -23 -48 -45
-29 -19 16 -19 30 -1 30 9 0 12 7 9 19 -4 16 -1 19 16 14 15 -4 21 -13 21 -34z
m1555 11 c10 0 15 -10 14 -32 -1 -28 -2 -30 -7 -10 -4 13 -11 23 -17 23 -5 0
-13 -10 -17 -23 -4 -15 -6 -6 -7 27 0 39 2 46 10 33 5 -10 17 -18 24 -18z
m374 -17 c-1 -27 -3 -40 -6 -30 -2 9 -11 17 -19 17 -8 0 -12 5 -9 10 3 6 0 10
-7 10 -24 0 -19 -38 5 -43 18 -4 18 -4 -5 -6 -32 -1 -42 11 -33 40 6 16 13 20
36 17 23 -4 29 -1 29 14 0 10 2 18 5 18 3 0 4 -21 4 -47z m28 -20 c-2 -16 -4
-5 -4 22 0 28 2 40 4 28 2 -13 2 -35 0 -50z m2940 33 c21 -19 43 -34 48 -34
16 -1 37 -49 41 -96 1 -19 -1 -24 -7 -15 -5 8 -9 24 -9 37 0 12 -4 22 -10 22
-5 0 -7 7 -4 15 5 11 -1 15 -22 15 -30 0 -64 25 -64 48 0 8 -8 21 -17 28 -11
8 -13 13 -6 14 7 0 30 -15 50 -34z m61 6 c4 -24 -16 -30 -36 -10 -20 20 -14
38 11 34 13 -2 23 -11 25 -24z m-3518 7 c0 -6 -9 -8 -20 -4 -28 9 -25 -10 4
-23 19 -9 25 -8 30 4 6 15 46 20 46 5 0 -5 -7 -8 -16 -7 -27 2 -28 -23 -2 -33
21 -9 20 -10 -12 -10 -19 -1 -46 -1 -59 -1 -13 -1 -29 4 -35 10 -7 7 -1 9 22
4 38 -8 43 8 7 24 -36 16 -33 42 5 42 17 0 30 -5 30 -11z m3174 -5 c9 -23 8
-24 -13 -24 -25 0 -38 20 -20 31 20 12 26 11 33 -7z m-112 -12 c-9 -3 -8 -12
4 -34 16 -31 10 -54 -7 -28 -7 11 -8 8 -4 -11 5 -19 2 -28 -10 -33 -12 -4 -15
-13 -12 -27 4 -13 -5 -36 -24 -63 -26 -36 -29 -46 -20 -70 6 -15 11 -44 11
-64 0 -28 3 -33 10 -22 9 13 12 13 24 -2 7 -10 22 -18 33 -18 24 0 58 -35 48
-50 -9 -15 33 -60 55 -60 10 0 29 -9 43 -20 14 -11 33 -20 42 -20 23 0 87 -39
80 -50 -2 -4 -16 -5 -30 -2 -24 4 -25 2 -19 -22 3 -14 2 -26 -2 -26 -23 0
-125 56 -130 72 -3 9 -13 20 -23 23 -10 3 -24 17 -31 30 -8 14 -24 28 -36 31
-12 3 -24 14 -27 25 -7 25 -22 24 -24 -1 -1 -11 7 -25 18 -30 30 -17 22 -29
-11 -17 -32 12 -35 22 -20 61 5 14 6 26 1 26 -5 0 -14 21 -21 48 -6 26 -17 58
-23 72 -23 53 -35 93 -32 104 2 6 6 24 9 39 4 15 10 25 15 22 5 -2 12 11 15
30 4 19 11 35 17 35 6 0 7 5 4 10 -10 16 6 34 16 19 8 -11 14 -8 32 12 12 14
26 24 32 21 5 -3 4 -7 -3 -10z m-2886 -25 c8 3 14 0 14 -6 0 -6 5 -11 10 -11
21 0 10 39 -12 43 -20 4 -19 4 5 6 23 1 27 -3 27 -27 0 -38 -6 -42 -41 -30
-23 8 -29 16 -28 36 2 23 2 24 6 5 3 -14 9 -20 19 -16z m121 14 c3 -13 10 -18
21 -14 10 4 13 2 8 -5 -4 -7 -1 -12 7 -12 22 0 15 34 -8 42 -17 5 -15 6 8 7
23 1 27 -3 27 -28 0 -32 -24 -48 -45 -31 -15 12 -60 -2 -68 -22 -3 -7 -6 8 -6
35 -1 44 1 47 25 47 17 0 28 -6 31 -19z m107 11 c-7 -4 -14 -18 -17 -32 -4
-21 -4 -20 -6 8 -1 24 3 32 17 32 11 0 13 -3 6 -8z m143 -39 c-3 -10 -5 -2 -5
17 0 19 2 27 5 18 2 -10 2 -26 0 -35z m1700 15 c12 -17 11 -63 -2 -63 -5 0 -8
10 -7 22 2 11 -2 24 -7 28 -13 8 -14 25 -2 25 5 0 13 -6 18 -12z m-4729 -14
c12 -13 28 -15 71 -11 46 5 61 2 81 -13 18 -13 22 -22 14 -30 -7 -7 -17 -3
-34 15 -13 14 -28 25 -34 25 -6 0 -4 -5 4 -10 13 -9 11 -13 -9 -29 -18 -14
-21 -20 -10 -24 10 -4 9 -6 -3 -6 -10 -1 -22 8 -28 18 -5 11 -20 23 -32 27
-27 8 -67 36 -68 47 0 13 31 7 48 -9z m5386 -19 l6 -30 -14 25 c-8 14 -12 28
-9 33 7 11 9 7 17 -28z m-5484 5 c0 -5 -2 -10 -4 -10 -3 0 -8 5 -11 10 -3 6
-1 10 4 10 6 0 11 -4 11 -10z m5267 -30 c-3 -15 -1 -32 6 -39 8 -8 5 -11 -12
-11 -14 0 -25 7 -28 20 -3 11 -10 20 -15 20 -5 0 -6 5 -3 10 3 6 15 10 25 10
14 0 18 5 13 17 -5 11 -3 14 6 8 8 -4 11 -18 8 -35z m103 19 c0 -6 -4 -7 -10
-4 -5 3 -10 11 -10 16 0 6 5 7 10 4 6 -3 10 -11 10 -16z m410 11 c0 -5 -11
-10 -24 -10 -14 0 -28 5 -31 10 -4 6 7 10 24 10 17 0 31 -4 31 -10z m177 -29
c44 -42 53 -72 53 -173 0 -84 -11 -101 -83 -136 -11 -6 -1 40 16 74 8 16 17
59 20 97 4 54 1 72 -13 90 -25 32 -52 87 -42 87 4 0 26 -18 49 -39z m-4857
-17 c0 -13 11 -33 24 -46 13 -13 26 -32 29 -43 3 -18 5 -17 15 7 6 14 16 29
21 33 6 3 11 15 11 26 0 11 4 18 8 15 10 -6 -9 -96 -20 -96 -5 0 -8 -19 -8
-42 0 -43 42 -114 61 -103 5 4 9 2 9 -3 0 -6 -7 -13 -15 -16 -35 -13 -106 95
-90 137 9 22 -12 57 -35 57 -20 0 -60 44 -60 67 0 8 5 23 11 34 8 16 13 18 25
8 8 -6 14 -22 14 -35z m-1125 26 c3 -5 1 -10 -4 -10 -6 0 -11 5 -11 10 0 6 2
10 4 10 3 0 8 -4 11 -10z m-413 -15 c4 -5 8 -17 8 -25 -1 -12 -3 -12 -14 3 -7
9 -21 17 -31 17 -13 0 -16 -5 -11 -25 7 -27 -8 -35 -18 -9 -9 25 12 55 37 52
12 -2 25 -7 29 -13z m5341 -47 c20 -22 36 -46 34 -52 -4 -11 -87 71 -87 85 0
18 15 8 53 -33z m1320 35 c3 -5 1 -17 -4 -28 -4 -11 -8 -15 -8 -8 -1 6 -4 18
-7 27 -6 16 11 23 19 9z m-5283 -11 c0 -5 -8 -16 -19 -26 -14 -13 -23 -14 -42
-6 -23 10 -23 10 4 5 23 -5 30 -2 34 15 5 19 23 29 23 12z m50 -23 c0 -5 -4
-9 -10 -9 -5 0 -10 7 -10 16 0 8 5 12 10 9 6 -3 10 -10 10 -16z m5195 -18 c3
-5 1 -12 -5 -16 -5 -3 -10 1 -10 9 0 18 6 21 15 7z m-6880 -12 c11 -17 -1 -21
-15 -4 -8 9 -8 15 -2 15 6 0 14 -5 17 -11z m5809 -24 c3 -8 1 -15 -4 -15 -6 0
-10 7 -10 15 0 8 2 15 4 15 2 0 6 -7 10 -15z m52 -22 c0 -21 4 -46 8 -55 5
-10 4 -18 -1 -18 -15 0 -47 74 -34 78 6 2 11 10 11 18 0 8 4 14 8 14 4 0 8
-17 8 -37z m1054 -30 c0 -13 -4 -23 -9 -23 -17 0 -23 20 -16 48 5 20 8 23 16
11 5 -7 9 -24 9 -36z m-813 5 c-3 -8 -6 -5 -6 6 -1 11 2 17 5 13 3 -3 4 -12 1
-19z m-462 -8 c3 -11 12 -20 19 -20 18 0 52 -27 44 -35 -4 -4 -17 0 -29 8 -11
9 -28 13 -35 10 -8 -3 -14 -1 -14 3 0 5 -3 19 -6 32 -8 27 12 30 21 2z m-1062
-24 c51 -21 71 -49 64 -92 -10 -62 -27 -65 -27 -6 0 36 -4 50 -12 47 -7 -2
-26 12 -41 31 -32 38 -31 40 16 20z m-4098 -22 c0 -10 4 -25 9 -33 6 -10 6
-16 -2 -19 -13 -4 -17 -32 -4 -32 4 0 6 -16 4 -35 -2 -19 -10 -35 -16 -35 -17
0 -38 47 -25 55 5 4 7 11 3 16 -4 6 -11 6 -19 -1 -9 -8 -15 -8 -20 0 -3 5 1
10 9 10 11 0 16 9 16 30 0 17 5 30 10 30 6 0 10 9 10 21 0 12 5 19 13 16 6 -2
12 -12 12 -23z m5045 10 c0 -8 -5 -12 -10 -9 -6 4 -8 11 -5 16 9 14 15 11 15
-7z m-3834 -34 c2 0 3 3 3 8 -3 16 2 23 11 17 7 -4 7 -12 0 -25 -7 -13 -5 -21
6 -31 19 -16 47 -69 40 -76 -9 -10 -23 7 -29 36 -4 19 -18 36 -42 51 -19 12
-35 25 -35 29 0 17 13 19 27 6 8 -8 16 -15 19 -15z m4213 -33 c47 -44 62 -67
43 -67 -4 0 -32 25 -61 54 -30 30 -59 54 -64 53 -5 -1 -11 3 -14 10 -9 25 47
-4 96 -50z m-5704 23 c7 -21 -37 -105 -48 -93 -4 3 -7 29 -7 56 0 40 3 48 15
43 8 -3 15 -1 15 4 0 18 19 10 25 -10z m833 -22 c-3 -57 -16 -68 -75 -64 -48
3 -48 3 -48 39 0 32 3 36 35 46 32 10 62 17 83 20 4 0 7 -18 5 -41z m3458 5
c9 -21 18 -61 20 -90 1 -29 8 -61 14 -73 11 -21 6 -40 -11 -40 -5 0 -9 7 -9
16 0 8 -4 13 -9 9 -6 -3 -8 13 -6 40 2 25 -1 45 -5 45 -5 0 -7 14 -3 31 5 25
3 31 -8 27 -8 -3 -13 -13 -11 -23 2 -10 -2 -15 -10 -13 -14 5 -23 70 -14 94
10 26 36 14 52 -23z m818 21 c3 -8 2 -12 -4 -9 -6 3 -10 10 -10 16 0 14 7 11
14 -7z m343 10 c-3 -3 -12 -4 -19 -1 -8 3 -5 6 6 6 11 1 17 -2 13 -5z m-4987
-39 c0 -5 -5 -3 -10 5 -5 8 -10 20 -10 25 0 6 5 3 10 -5 5 -8 10 -19 10 -25z
m6259 9 c3 -16 1 -17 -13 -5 -19 16 -21 34 -3 29 6 -3 14 -13 16 -24z m-809 6
c0 -5 -2 -10 -4 -10 -3 0 -8 5 -11 10 -3 6 -1 10 4 10 6 0 11 -4 11 -10z
m-960 -32 c0 -13 -23 -5 -28 10 -2 7 2 10 12 6 9 -3 16 -11 16 -16z m-3711
-80 c12 -32 20 -62 16 -67 -3 -6 0 -19 6 -30 14 -22 -2 -46 -37 -53 -10 -2
-18 -10 -16 -16 1 -7 -7 -12 -19 -12 -12 0 -18 -4 -13 -11 4 -7 1 -10 -7 -7
-8 2 -15 17 -17 32 -2 18 -11 30 -23 33 -16 5 -18 11 -13 47 10 68 47 136 73
136 6 0 11 5 11 12 0 20 15 -4 39 -64z m468 30 c6 -7 13 -31 16 -53 4 -22 14
-46 24 -53 15 -11 15 -14 4 -21 -11 -7 -10 -15 8 -44 12 -20 28 -55 34 -79 7
-24 16 -42 20 -40 16 6 67 -33 67 -53 0 -29 35 -82 59 -90 12 -3 21 -12 21
-20 0 -11 -4 -11 -28 0 -37 19 -72 53 -72 70 0 9 -9 23 -20 32 -11 10 -20 23
-20 30 0 7 -6 13 -14 13 -19 0 -46 38 -40 55 3 6 -2 18 -11 25 -8 7 -15 19
-15 26 0 8 -4 14 -9 14 -14 0 -19 48 -7 60 6 6 7 10 1 8 -5 -2 -21 8 -34 21
-16 16 -20 26 -13 29 9 3 9 9 2 23 -7 11 -7 19 -1 19 5 0 7 9 4 20 -6 22 9 27
24 8z m3711 -54 c-10 -10 -28 6 -28 24 0 15 1 15 17 -1 9 -9 14 -19 11 -23z
m1187 -4 c3 -5 1 -10 -4 -10 -6 0 -11 5 -11 10 0 6 2 10 4 10 3 0 8 -4 11 -10z
m-2788 -22 c-3 -8 -6 -5 -6 6 -1 11 2 17 5 13 3 -3 4 -12 1 -19z m2581 -6 c3
-9 -7 -11 -40 -6 -63 10 -73 26 -14 22 29 -2 51 -8 54 -16z m-2639 -34 c1 -5
-3 -8 -9 -8 -5 0 -10 12 -9 28 0 24 1 25 9 7 5 -11 9 -23 9 -27z m2732 22 c10
-6 19 -18 19 -26 0 -8 4 -13 9 -9 5 3 12 1 16 -5 3 -5 2 -10 -4 -10 -6 0 -8
-7 -5 -15 3 -8 0 -17 -8 -20 -9 -4 -13 -17 -10 -43 2 -27 1 -33 -7 -22 -5 8
-8 17 -6 20 2 3 -10 15 -26 25 -33 22 -33 40 0 39 26 -1 26 4 1 36 -31 39 -22
52 21 30z m-302 -27 c2 -2 -3 -3 -11 -3 -9 0 -19 7 -22 16 -6 15 -4 15 11 3
10 -7 20 -15 22 -16z m-4831 3 c-13 -14 -28 -12 -28 5 0 5 9 9 20 9 17 0 19
-2 8 -14z m2272 4 c0 -5 -4 -10 -10 -10 -5 0 -10 5 -10 10 0 6 5 10 10 10 6 0
10 -4 10 -10z m2820 -4 c0 -2 -7 -9 -15 -16 -13 -11 -14 -10 -9 4 5 14 24 23
24 12z m-3510 -99 c0 -18 -2 -19 -10 -7 -13 20 -13 43 0 35 6 -3 10 -16 10
-28z m576 19 c20 5 24 2 24 -14 0 -12 -4 -24 -10 -27 -17 -11 -50 15 -49 38 0
12 3 16 6 10 3 -8 14 -11 29 -7z m-1862 -41 c11 -8 28 -15 38 -15 10 0 18 -4
18 -8 0 -6 -22 -7 -62 -3 -10 1 -30 41 -21 41 4 0 17 -7 27 -15z m-921 -16 c4
-16 3 -18 -9 -8 -16 13 -19 29 -5 29 5 0 11 -9 14 -21z m4762 -6 l18 -28 -21
19 c-12 11 -22 23 -22 28 0 14 7 9 25 -19z m-653 -63 c-2 -7 5 -21 14 -31 9
-11 12 -19 7 -19 -6 0 -22 17 -34 38 -34 54 -35 58 -8 40 13 -9 23 -22 21 -28z
m1008 -22 c0 -10 -7 -18 -16 -18 -11 0 -14 5 -10 16 3 9 6 23 6 32 0 15 2 15
10 2 5 -8 10 -23 10 -32z m715 31 c11 -17 -1 -21 -15 -4 -8 9 -8 15 -2 15 6 0
14 -5 17 -11z m-3295 -74 c10 -13 9 -15 -9 -15 -29 0 -46 43 -29 73 11 21 12
21 19 -10 3 -18 12 -40 19 -48z m1710 50 c0 -17 36 -38 50 -30 6 4 24 -4 42
-16 31 -22 31 -23 8 -31 -16 -6 -20 -13 -15 -26 4 -9 7 -36 6 -59 -2 -36 1
-42 20 -45 31 -4 37 -28 7 -28 -38 0 -67 27 -74 70 -4 21 -13 41 -20 44 -8 3
-14 16 -14 29 0 13 -5 28 -11 34 -14 14 -22 86 -9 78 6 -4 10 -13 10 -20z
m824 9 c9 -22 -3 -32 -14 -14 -12 19 -12 30 -1 30 5 0 12 -7 15 -16z m-869
-74 c-4 -12 -9 -19 -12 -17 -3 3 -2 15 2 27 4 12 9 19 12 17 3 -3 2 -15 -2
-27z m-4988 1 c-3 -11 2 -29 10 -41 19 -26 11 -37 -11 -15 -18 19 -22 75 -5
75 6 0 9 -9 6 -19z m3493 -11 c0 -10 12 -28 26 -39 23 -18 24 -21 9 -27 -22
-9 -46 5 -65 39 -12 21 -12 28 -1 41 16 19 31 12 31 -14z m1304 -9 c-6 -6 -24
19 -24 34 1 6 7 1 15 -9 8 -11 12 -22 9 -25z m824 12 c31 -46 34 -53 20 -53
-20 1 -55 33 -63 58 -9 32 19 29 43 -5z m272 12 c16 -19 10 -19 -26 0 -25 13
-26 15 -8 15 12 0 27 -7 34 -15z m-1032 -97 c-2 -34 2 -52 12 -58 8 -6 10 -10
4 -10 -6 0 -12 -21 -13 -49 -1 -36 3 -50 14 -55 11 -4 14 -2 10 7 -4 6 3 1 14
-13 30 -35 63 -100 52 -100 -6 0 -22 16 -37 35 -14 19 -31 35 -37 35 -6 0 -24
12 -39 27 -27 25 -41 20 -16 -5 10 -10 10 -15 -2 -22 -29 -18 -34 -12 -31 36
1 12 -5 24 -13 27 -9 4 -12 14 -9 26 6 23 19 28 26 9 2 -7 7 -10 11 -7 4 4 0
24 -8 44 -19 44 -20 59 -5 49 6 -3 21 -1 33 6 27 14 24 60 -5 67 -15 4 -16 8
-6 24 12 19 12 19 29 -2 13 -15 17 -36 16 -71z m348 77 c24 -18 7 -19 -26 0
-16 9 -19 14 -9 15 8 0 24 -7 35 -15z m-865 -33 c-15 -4 -33 17 -25 30 3 4 13
0 22 -10 14 -14 15 -18 3 -20z m1489 -14 c0 -9 6 -19 13 -22 6 -3 1 -4 -13 -3
-26 2 -37 25 -25 55 5 14 7 14 15 2 6 -8 10 -22 10 -32z m90 17 c0 -8 -4 -17
-10 -20 -6 -4 -10 5 -10 20 0 15 4 24 10 20 6 -3 10 -12 10 -20z m-925 -5 c3
-5 1 -10 -4 -10 -6 0 -11 5 -11 10 0 6 2 10 4 10 3 0 8 -4 11 -10z m312 -12
c15 -12 6 -31 -9 -22 -7 4 -8 2 -4 -4 4 -6 -1 -19 -11 -29 -16 -16 -19 -16
-33 -3 -20 21 -23 53 -4 46 8 -3 14 -1 14 4 0 6 -4 10 -10 10 -5 0 -10 4 -10
9 0 10 50 2 67 -11z m868 -8 c3 -5 1 -10 -4 -10 -6 0 -11 5 -11 10 0 6 2 10 4
10 3 0 8 -4 11 -10z m-1285 -30 c0 -5 -4 -10 -10 -10 -5 0 -10 5 -10 10 0 6 5
10 10 10 6 0 10 -4 10 -10z m645 -8 c-3 -3 -11 0 -18 7 -9 10 -8 11 6 5 10 -3
15 -9 12 -12z m645 8 c0 -5 8 -10 19 -10 14 0 21 -10 25 -35 5 -24 11 -33 21
-28 8 3 15 0 15 -6 0 -6 -11 -11 -24 -11 -22 0 -32 12 -37 45 -1 6 -10 16 -20
23 -20 14 -25 32 -9 32 6 0 10 -4 10 -10z m-1880 -41 c0 -11 -4 -18 -10 -14
-5 3 -7 12 -3 20 7 21 13 19 13 -6z m946 -6 c20 -26 17 -42 -6 -36 -11 3 -20
10 -20 15 0 5 -4 6 -10 3 -5 -3 -10 0 -10 9 0 12 11 22 29 25 2 1 10 -7 17
-16z m109 -23 c19 -8 19 -9 -2 -9 -12 -1 -25 4 -28 9 -7 12 2 12 30 0z m814
-15 c-9 -9 -23 -13 -32 -9 -28 10 -19 24 15 24 29 0 31 -2 17 -15z m-469 -26
c6 -10 7 -19 2 -19 -5 0 -14 12 -20 26 -14 29 2 24 18 -7z m-458 -47 c-10 -3
-9 -9 2 -28 16 -23 15 -23 -21 -30 -32 -6 -39 -4 -59 21 -20 26 -22 26 -33 9
-11 -20 -11 -20 -11 24 0 4 6 7 13 7 6 0 17 10 24 21 8 15 20 20 38 19 18 -2
25 2 25 13 0 10 8 2 17 -17 13 -27 14 -36 5 -39z m-2215 26 c-3 -8 -6 -5 -6 6
-1 11 2 17 5 13 3 -3 4 -12 1 -19z m2448 12 c3 -5 2 -10 -4 -10 -5 0 -13 5
-16 10 -3 6 -2 10 4 10 5 0 13 -4 16 -10z m730 0 c8 -13 -5 -13 -25 0 -13 8
-13 10 2 10 9 0 20 -4 23 -10z m-4137 -55 c-3 -3 -9 2 -12 12 -6 14 -5 15 5 6
7 -7 10 -15 7 -18z m222 15 c0 -5 -4 -10 -10 -10 -5 0 -10 5 -10 10 0 6 5 10
10 10 6 0 10 -4 10 -10z m970 -17 c0 -21 -3 -24 -9 -14 -5 8 -7 20 -4 28 8 21
13 15 13 -14z m180 13 c0 -11 -19 -15 -25 -6 -3 5 1 10 9 10 9 0 16 -2 16 -4z
m2270 -6 c0 -5 -4 -10 -9 -10 -6 0 -13 5 -16 10 -3 6 1 10 9 10 9 0 16 -4 16
-10z m-2185 -10 c3 -5 1 -10 -4 -10 -6 0 -11 5 -11 10 0 6 2 10 4 10 3 0 8 -4
11 -10z m1231 -12 l19 -21 -27 18 c-29 18 -34 25 -20 25 5 0 17 -10 28 -22z
m-426 -28 c0 -5 -2 -10 -4 -10 -3 0 -8 5 -11 10 -3 6 -1 10 4 10 6 0 11 -4 11
-10z m305 0 c3 -5 2 -10 -4 -10 -5 0 -13 5 -16 10 -3 6 -2 10 4 10 5 0 13 -4
16 -10z m65 -10 c8 -5 12 -11 9 -14 -3 -3 -14 1 -25 9 -21 16 -8 20 16 5z
m141 0 c8 12 9 11 4 -6 -4 -15 2 -31 19 -51 26 -31 33 -58 23 -85 -4 -10 -9
-24 -11 -32 -4 -12 -10 -13 -35 -3 -17 6 -31 17 -31 23 0 7 -6 19 -14 26 -8 8
-15 23 -17 33 -5 24 -29 32 -29 10 0 -12 -5 -15 -16 -11 -9 3 -20 6 -25 6 -16
0 -9 18 18 47 14 15 23 23 20 17 -4 -7 0 -14 8 -18 8 -3 15 -1 15 5 0 6 5 7
10 4 14 -9 12 8 -2 24 -11 11 -9 12 10 6 15 -4 22 -2 22 7 0 10 3 9 10 -2 9
-13 11 -13 21 0z m-371 -10 c0 -5 -2 -10 -4 -10 -3 0 -8 5 -11 10 -3 6 -1 10
4 10 6 0 11 -4 11 -10z m-2037 -31 c3 -10 1 -21 -4 -24 -11 -7 -51 33 -44 44
9 15 43 0 48 -20z m-93 2 c0 -11 2 -25 3 -33 2 -7 2 -10 0 -5 -3 4 -13 7 -22
7 -27 0 -31 10 -13 31 21 24 32 24 32 0z m197 -14 c14 5 43 -35 43 -59 0 -10
4 -18 8 -18 5 0 7 14 4 30 -2 17 0 30 6 30 9 0 19 -22 36 -72 3 -10 10 -18 16
-18 6 0 8 5 5 11 -11 17 4 59 20 59 12 0 14 -7 9 -27 -6 -27 -6 -28 11 -8 9
11 14 15 11 10 -2 -6 0 -17 5 -25 8 -13 10 -13 18 -1 12 19 41 6 41 -19 0 -22
-15 -27 -23 -7 -3 7 -6 5 -6 -5 -1 -19 -21 -26 -21 -8 0 6 -9 10 -20 10 -15 0
-20 -7 -20 -24 0 -29 -15 -43 -23 -21 -4 8 -24 26 -47 40 -22 14 -58 43 -80
65 -23 23 -45 37 -54 34 -9 -3 -17 3 -21 15 -11 35 4 43 38 23 18 -11 37 -18
44 -15z m2070 -13 c25 -39 9 -48 -25 -13 -18 18 -32 36 -32 40 0 15 42 -5 57
-27z m83 15 c0 -5 -4 -9 -10 -9 -5 0 -10 7 -10 16 0 8 5 12 10 9 6 -3 10 -10
10 -16z m-251 5 c22 -5 31 -12 31 -26 0 -12 4 -16 12 -12 7 4 8 3 4 -5 -4 -6
-2 -19 5 -27 6 -8 10 -17 7 -19 -8 -8 -38 6 -38 17 0 6 -17 26 -37 44 -38 35
-37 38 16 28z m-89 -25 c0 -5 -4 -9 -10 -9 -5 0 -10 7 -10 16 0 8 5 12 10 9 6
-3 10 -10 10 -16z m1286 -16 c-7 -7 -26 7 -26 19 0 6 6 6 15 -2 9 -7 13 -15
11 -17z m-3305 -20 c10 -10 -7 -73 -21 -73 -13 0 -41 50 -35 60 3 6 1 10 -5
10 -6 0 -9 4 -6 9 7 11 54 7 67 -6z m1939 -33 c0 -18 -19 -11 -30 11 -11 19
-10 20 9 9 12 -6 21 -15 21 -20z m-1449 -17 c6 -16 8 -38 6 -50 -2 -13 2 -28
9 -34 8 -6 12 -14 9 -18 -2 -4 9 -22 25 -40 35 -38 36 -41 11 -34 -16 4 -18 0
-13 -23 4 -23 2 -26 -12 -21 -10 4 -19 7 -21 7 -2 0 -12 27 -21 60 -9 33 -21
63 -25 66 -14 8 -10 24 6 24 8 0 15 5 15 10 0 6 -4 10 -10 10 -5 0 -10 16 -10
35 0 42 16 46 31 8z m1682 -58 c19 -19 39 -35 44 -35 6 0 13 -7 17 -15 3 -10
-1 -15 -11 -15 -14 0 -14 -2 3 -15 19 -14 19 -14 -2 -15 -28 0 -47 24 -39 49
4 14 -1 24 -19 36 -21 14 -43 45 -31 45 2 0 19 -16 38 -35z m-2467 -13 c-9 -8
-26 10 -26 26 1 15 2 15 15 -2 8 -11 13 -21 11 -24z m592 9 c27 -28 28 -30 8
-35 -11 -3 -25 -1 -32 5 -8 7 -14 6 -19 -2 -14 -21 -23 11 -11 37 14 31 18 30
54 -5z m2538 -32 c14 -16 9 -15 -29 7 -26 14 -47 27 -47 29 0 10 60 -19 76
-36z m-1495 11 c10 -6 19 -19 19 -30 0 -10 5 -20 12 -22 6 -2 8 -10 4 -16 -5
-9 -17 -1 -37 24 -40 50 -39 65 2 44z m-381 -25 c7 -8 20 -15 30 -15 9 0 29
-9 44 -21 29 -23 36 -73 11 -83 -12 -4 -13 -11 -5 -32 7 -16 7 -31 2 -36 -6
-6 -13 2 -17 19 -5 15 -10 35 -12 43 -3 8 -7 30 -10 48 -3 19 -11 32 -20 32
-8 0 -11 -4 -8 -10 9 -14 -29 -12 -43 2 -10 10 -15 10 -22 -2 -8 -12 -10 -12
-11 5 -1 11 -1 24 0 29 1 4 -4 14 -10 22 -9 12 -5 14 24 14 19 0 40 -7 47 -15z
m238 -9 c11 -12 -10 -56 -27 -56 -31 0 -73 64 -48 73 12 4 66 -8 75 -17z
m2571 -28 c1 -11 -4 -15 -13 -12 -21 8 -28 34 -14 51 10 13 13 12 19 -4 4 -10
8 -26 8 -35z m-3066 22 c9 -11 17 -25 17 -31 0 -5 5 -7 10 -4 6 3 10 15 10 26
0 32 30 21 46 -18 12 -27 13 -42 5 -57 -5 -12 -12 -30 -14 -41 -3 -18 -5 -17
-15 6 -6 15 -29 46 -51 68 -23 23 -41 48 -41 56 0 21 12 19 33 -5z m3133 -55
c-20 -21 -26 -24 -26 -11 0 9 4 16 9 16 5 0 16 17 23 37 12 34 13 35 16 11 2
-17 -6 -35 -22 -53z m-3146 -9 c32 -26 53 -82 29 -74 -8 3 -15 14 -17 27 -2
14 -18 28 -48 42 -30 15 -44 27 -44 41 0 15 5 18 20 13 13 -4 20 -2 21 7 1 7
4 3 6 -9 2 -12 17 -33 33 -47z m1688 5 c26 -45 24 -48 -17 -26 -24 12 -29 21
-29 50 0 43 12 36 46 -24z m-291 -28 c-2 -16 -4 -5 -4 22 0 28 2 40 4 28 2
-13 2 -35 0 -50z m30 0 c-2 -16 -4 -5 -4 22 0 28 2 40 4 28 2 -13 2 -35 0 -50z
m-1284 14 c-8 -13 -23 3 -23 26 0 20 0 20 14 2 8 -11 12 -23 9 -28z m757 3 c0
-22 -4 -40 -8 -40 -5 0 -8 14 -7 30 2 33 -8 46 -26 34 -8 -4 -7 -9 2 -14 10
-7 10 -12 0 -23 -9 -12 -9 -16 1 -20 7 -2 10 -8 6 -12 -14 -15 -28 8 -28 46 0
37 2 39 30 39 28 0 30 -2 30 -40z m366 15 c3 -14 10 -25 14 -25 4 0 11 11 14
25 4 14 11 25 16 25 9 0 -12 -66 -25 -79 -7 -7 -13 1 -30 42 -9 21 -11 37 -5
37 5 0 12 -11 16 -25z m-334 -26 c-3 -19 -7 -26 -12 -19 -8 14 -2 50 9 50 4 0
5 -14 3 -31z m78 1 c0 -25 -4 -30 -24 -30 -34 0 -41 16 -14 31 22 12 22 12 3
20 -17 6 -16 8 8 8 24 1 27 -3 27 -29z m60 21 c0 -5 -6 -14 -14 -21 -8 -6 -12
-18 -9 -26 4 -10 0 -12 -11 -8 -16 6 -16 8 0 25 9 10 13 23 9 28 -3 6 1 11 9
11 9 0 16 -4 16 -9z m71 -3 c0 -10 2 -10 6 0 2 6 17 11 31 11 19 -1 21 -3 9
-6 -18 -5 -17 -6 2 -20 27 -18 18 -33 -17 -32 l-27 1 25 8 c23 7 23 8 6 15
-13 6 -23 3 -31 -8 -26 -35 -77 -12 -61 28 7 18 56 20 57 3z m229 -24 c0 -21
-4 -33 -10 -29 -6 4 -8 11 -5 16 4 5 1 9 -4 9 -6 0 -11 -4 -11 -10 0 -5 -4
-10 -10 -10 -20 0 -10 28 13 35 l22 7 -25 8 -25 8 28 1 c25 1 27 -2 27 -35z
m128 18 c2 -8 -6 -16 -19 -19 -22 -6 -22 -7 -3 -14 18 -7 18 -8 -3 -8 -23 -1
-40 30 -28 49 9 15 47 8 53 -8z m48 9 c-18 -7 -18 -8 -3 -14 28 -11 21 -37
-10 -36 l-28 1 25 7 25 7 -22 8 c-33 11 -29 36 5 35 23 0 24 -2 8 -8z m-1051
-28 c24 -27 31 -43 19 -43 -14 0 -73 53 -68 61 9 15 22 10 49 -18z m2699 1 c4
-10 1 -14 -6 -12 -15 5 -23 28 -10 28 5 0 13 -7 16 -16z m-2971 -56 c3 -10 4
-18 1 -18 -12 0 -43 46 -44 64 0 16 2 16 18 -5 10 -13 21 -32 25 -41z m-325
-7 c-16 -5 -51 35 -43 49 5 8 14 3 30 -16 13 -16 19 -31 13 -33z m1896 8 c-9
-15 -34 3 -34 24 0 19 1 19 20 2 11 -10 17 -21 14 -26z m61 -18 l20 -24 -22
12 c-13 6 -23 19 -23 28 0 9 1 14 3 12 1 -2 11 -15 22 -28z m40 17 c27 -12 36
-34 9 -24 -9 3 -19 6 -24 6 -4 0 -10 7 -14 15 -7 18 -4 18 29 3z m505 -8 c14
0 21 -33 9 -41 -17 -10 -49 12 -49 34 0 13 5 17 16 13 9 -3 19 -6 24 -6z
m-960 -9 c0 -6 -4 -13 -10 -16 -5 -3 -10 1 -10 9 0 9 5 16 10 16 6 0 10 -4 10
-9z m-1540 -43 c0 -25 -3 -29 -10 -18 -13 20 -13 50 0 50 6 0 10 -15 10 -32z
m1569 -25 c12 -26 12 -26 -10 -11 -28 18 -36 38 -16 38 7 0 19 -12 26 -27z
m-1271 -18 c14 -31 15 -35 4 -35 -8 0 -32 43 -32 55 0 15 19 1 28 -20z m1693
-3 c16 -14 20 -24 14 -38 -4 -10 -7 -29 -6 -41 1 -13 -2 -23 -8 -23 -6 0 -12
8 -12 18 -1 16 -2 16 -6 0 -12 -48 -33 19 -25 80 4 27 13 28 43 4z m1075 -24
c3 -5 4 -12 1 -14 -6 -6 -47 18 -47 27 0 10 39 -1 46 -13z m-1152 -34 c4 -9 4
-19 2 -21 -8 -8 -26 8 -26 23 0 19 16 18 24 -2z m-1344 -25 c0 -11 -4 -17 -10
-14 -5 3 -10 15 -10 26 0 11 5 17 10 14 6 -3 10 -15 10 -26z m2395 21 c3 -5 2
-10 -4 -10 -5 0 -13 5 -16 10 -3 6 -2 10 4 10 5 0 13 -4 16 -10z m-1705 -28
c0 -15 -2 -15 -10 -2 -13 20 -13 33 0 25 6 -3 10 -14 10 -23z m1412 -2 c12
-11 17 -20 11 -20 -5 0 -18 9 -28 20 -10 11 -15 20 -11 20 4 0 16 -9 28 -20z
m-3212 -22 c0 -5 -4 -8 -10 -8 -5 0 -10 10 -10 23 0 18 2 19 10 7 5 -8 10 -18
10 -22z m2830 -19 c0 -5 -4 -9 -10 -9 -5 0 -10 7 -10 16 0 8 5 12 10 9 6 -3
10 -10 10 -16z m-2070 -4 c10 -12 10 -15 -3 -15 -8 0 -17 7 -21 15 -3 8 -2 15
3 15 5 0 14 -7 21 -15z m3030 0 c11 -13 10 -14 -4 -9 -9 3 -16 10 -16 15 0 13
6 11 20 -6z m-1945 -5 c3 -5 1 -10 -4 -10 -6 0 -11 5 -11 10 0 6 2 10 4 10 3
0 8 -4 11 -10z m-1868 -32 c-3 -8 -6 -5 -6 6 -1 11 2 17 5 13 3 -3 4 -12 1
-19z m820 0 c-3 -8 -6 -5 -6 6 -1 11 2 17 5 13 3 -3 4 -12 1 -19z m2628 12 c3
-5 1 -10 -4 -10 -6 0 -11 5 -11 10 0 6 2 10 4 10 3 0 8 -4 11 -10z m-9 -40 c7
0 25 -11 40 -25 15 -14 22 -25 16 -25 -6 0 -14 5 -17 10 -3 6 -13 10 -22 10
-19 0 -53 28 -53 44 0 6 5 5 12 -2 7 -7 18 -12 24 -12z m-1336 -40 c0 -5 14
-22 30 -37 32 -28 39 -53 15 -53 -8 0 -15 6 -15 13 0 7 -13 26 -30 42 -33 32
-38 45 -15 45 8 0 15 -4 15 -10z m-3120 -66 c0 -14 -5 -35 -11 -46 -8 -14 -8
-23 0 -31 8 -8 11 -8 11 2 0 7 5 9 11 5 8 -4 7 -9 -2 -15 -23 -15 -35 -10 -48
17 -9 22 -9 31 4 50 8 13 15 30 15 39 0 9 5 13 10 10 6 -3 10 -17 10 -31z
m3238 -16 c19 -19 14 -30 -8 -18 -11 6 -20 15 -20 20 0 14 14 12 28 -2z m109
-20 c-3 -8 -6 -5 -6 6 -1 11 2 17 5 13 3 -3 4 -12 1 -19z m1078 -18 c3 -5 -1
-10 -10 -10 -9 0 -13 5 -10 10 3 6 8 10 10 10 2 0 7 -4 10 -10z m-1073 -25 c3
-13 1 -22 -3 -19 -9 5 -13 44 -5 44 2 0 6 -11 8 -25z m-3317 -35 c3 -5 2 -10
-4 -10 -5 0 -13 5 -16 10 -3 6 -2 10 4 10 5 0 13 -4 16 -10z m1920 -30 c3 -5
1 -10 -4 -10 -6 0 -11 5 -11 10 0 6 2 10 4 10 3 0 8 -4 11 -10z m-95 -80 c0
-5 -4 -10 -10 -10 -5 0 -10 5 -10 10 0 6 5 10 10 10 6 0 10 -4 10 -10z"/>
<path d="M2930 3409 c0 -24 23 -21 28 4 2 10 -3 17 -12 17 -10 0 -16 -9 -16
-21z"/>
<path d="M3000 3409 c0 -24 23 -21 28 4 2 10 -3 17 -12 17 -10 0 -16 -9 -16
-21z"/>
<path d="M6486 2071 c-4 -7 -5 -15 -2 -18 9 -9 19 4 14 18 -4 11 -6 11 -12 0z"/>
<path d="M6710 1723 c0 -13 29 -38 35 -31 3 3 -4 13 -15 23 -11 10 -20 13 -20
8z"/>
<path d="M6785 1680 c3 -5 10 -10 16 -10 5 0 9 5 9 10 0 6 -7 10 -16 10 -8 0
-12 -4 -9 -10z"/>
<path d="M3795 2230 c-7 -12 2 -30 16 -30 5 0 9 9 9 20 0 21 -15 27 -25 10z"/>
<path d="M1596 1705 c-9 -26 -7 -32 5 -12 6 10 9 21 6 23 -2 3 -7 -2 -11 -11z"/>
<path d="M5520 1420 c-13 -8 -12 -10 3 -10 9 0 17 5 17 10 0 12 -1 12 -20 0z"/>
<path d="M2715 980 c-7 -12 2 -30 16 -30 12 0 12 27 0 35 -5 3 -12 1 -16 -5z"/>
<path d="M3902 801 c4 -13 18 -16 19 -4 0 4 -5 9 -11 12 -7 2 -11 -2 -8 -8z"/>
<path d="M4535 741 c-8 -15 3 -31 21 -31 9 0 14 7 12 17 -4 20 -24 28 -33 14z"/>
</g>
</svg>
